<svg xmlns="http://www.w3.org/2000/svg" width="179.107" height="28" viewBox="0 0 179.107 28">
  <g id="title-letters-horizontal-white" transform="translate(322.806 260.816)">
    <path id="logo-shape" d="M15.117,23.442A4.539,4.539,0,1,1,19.656,28,4.549,4.549,0,0,1,15.117,23.442ZM6.039,21a2.107,2.107,0,1,1,2.107,2.116A2.112,2.112,0,0,1,6.039,21Zm23.628-.814A2.107,2.107,0,1,1,31.774,22.3,2.112,2.112,0,0,1,29.667,20.186ZM19.373,12.677a3.222,3.222,0,1,1,3.222,3.235A3.229,3.229,0,0,1,19.373,12.677Zm-10.781-.59a3.81,3.81,0,1,1,3.81,3.826A3.818,3.818,0,0,1,8.592,12.087Zm18.521-6.8a2.107,2.107,0,1,1,2.107,2.116A2.112,2.112,0,0,1,27.113,5.291ZM0,4.761A2.108,2.108,0,1,1,2.107,6.878,2.112,2.112,0,0,1,0,4.761ZM15.158,2.645a2.634,2.634,0,1,1,2.634,2.645A2.64,2.64,0,0,1,15.158,2.645Z" transform="translate(-322.806 -260.816)" fill="#fff"/>
    <path id="Path_Heme" data-name="Path Heme" d="M14.118-36.036h3.716v16.509H14.118v-7H7.876v7H4.16V-36.036H7.876v6.313h6.242ZM20.336-25.7a7.663,7.663,0,0,1,.512-2.918A6.257,6.257,0,0,1,22.194-30.7a5.6,5.6,0,0,1,1.918-1.263,6,6,0,0,1,2.227-.429,5.536,5.536,0,0,1,4.217,1.632,6.724,6.724,0,0,1,1.548,4.8q0,.31-.024.679t-.048.655H23.981a2.359,2.359,0,0,0,1.024,1.739,4.117,4.117,0,0,0,2.43.643,10.258,10.258,0,0,0,1.918-.179,7.239,7.239,0,0,0,1.537-.441l.476,2.883a4.9,4.9,0,0,1-.762.286,9.974,9.974,0,0,1-1.06.25q-.584.107-1.251.179a12.514,12.514,0,0,1-1.334.071,7.9,7.9,0,0,1-2.942-.5,5.73,5.73,0,0,1-2.073-1.37,5.437,5.437,0,0,1-1.215-2.061A8.163,8.163,0,0,1,20.336-25.7Zm8.338-1.358a3.664,3.664,0,0,0-.155-.881,2.2,2.2,0,0,0-.4-.762,2.156,2.156,0,0,0-.691-.548,2.251,2.251,0,0,0-1.036-.214,2.381,2.381,0,0,0-1.024.2,2.117,2.117,0,0,0-.715.536,2.4,2.4,0,0,0-.441.774,5.081,5.081,0,0,0-.226.893Zm12.578.881a4.9,4.9,0,0,0-.441-2.43,1.634,1.634,0,0,0-1.513-.715q-.334,0-.691.036t-.691.083v9.672h-3.55v-12.1q.453-.119,1.06-.25t1.286-.238q.679-.107,1.394-.167t1.406-.06a5.907,5.907,0,0,1,2.2.345,4.972,4.972,0,0,1,1.394.822,6.1,6.1,0,0,1,1.751-.858,6.132,6.132,0,0,1,1.822-.31,6.259,6.259,0,0,1,2.466.417,3.716,3.716,0,0,1,1.537,1.179,4.462,4.462,0,0,1,.786,1.811,11.684,11.684,0,0,1,.214,2.335v7.075h-3.55v-6.647A4.9,4.9,0,0,0,47.7-28.6a1.634,1.634,0,0,0-1.513-.715,3.2,3.2,0,0,0-.8.143,3.113,3.113,0,0,0-.846.357,5.41,5.41,0,0,1,.214,1.155q.048.607.048,1.3v6.837h-3.55Zm12.578.476a7.663,7.663,0,0,1,.512-2.918A6.257,6.257,0,0,1,55.689-30.7a5.6,5.6,0,0,1,1.918-1.263,6,6,0,0,1,2.227-.429,5.536,5.536,0,0,1,4.217,1.632,6.724,6.724,0,0,1,1.548,4.8q0,.31-.024.679t-.048.655H57.476A2.359,2.359,0,0,0,58.5-22.886a4.117,4.117,0,0,0,2.43.643,10.258,10.258,0,0,0,1.918-.179,7.239,7.239,0,0,0,1.537-.441l.476,2.883a4.9,4.9,0,0,1-.762.286,9.975,9.975,0,0,1-1.06.25q-.584.107-1.251.179a12.514,12.514,0,0,1-1.334.071,7.9,7.9,0,0,1-2.942-.5,5.73,5.73,0,0,1-2.073-1.37,5.437,5.437,0,0,1-1.215-2.061A8.163,8.163,0,0,1,53.831-25.7Zm8.338-1.358a3.664,3.664,0,0,0-.155-.881,2.2,2.2,0,0,0-.4-.762,2.156,2.156,0,0,0-.691-.548,2.251,2.251,0,0,0-1.036-.214,2.381,2.381,0,0,0-1.024.2,2.117,2.117,0,0,0-.715.536,2.4,2.4,0,0,0-.441.774,5.081,5.081,0,0,0-.226.893Z" transform="translate(-282.819 -219.283)" fill="#fff"/>
    <path id="Health" d="M50.073-41.352a.458.458,0,0,1,.3.109.458.458,0,0,1,.161.349v13.651a4.243,4.243,0,0,0,.064.773,1.036,1.036,0,0,0,.186.448,1.015,1.015,0,0,0,.4.289,2.78,2.78,0,0,0,.875.177.458.458,0,0,1,.327.175.458.458,0,0,1,.091.359l-.5,2.93a.458.458,0,0,1-.459.381,9.351,9.351,0,0,1-2.646-.355,4.189,4.189,0,0,1-1.709-.982,3.35,3.35,0,0,1-.882-1.569,7.816,7.816,0,0,1-.217-1.911V-40.322a.458.458,0,0,1,.385-.452L50-41.346A.459.459,0,0,1,50.073-41.352ZM51.494-24.7a2.91,2.91,0,0,1-.675-.192,1.91,1.91,0,0,1-.763-.568,1.939,1.939,0,0,1-.362-.839,5.154,5.154,0,0,1-.079-.942V-40.356l-2.633.424v13.4a6.907,6.907,0,0,0,.188,1.686,2.413,2.413,0,0,0,.642,1.147,3.292,3.292,0,0,0,1.341.757,7.742,7.742,0,0,0,1.989.3Zm15.732-16.65a.458.458,0,0,1,.3.109.458.458,0,0,1,.161.349v5.4q.174-.039.373-.077a6.246,6.246,0,0,1,1.17-.115,7.177,7.177,0,0,1,2.712.451,4.409,4.409,0,0,1,1.8,1.317,5.034,5.034,0,0,1,.945,1.99,10.575,10.575,0,0,1,.263,2.441v7.075a.458.458,0,0,1-.458.458h-3.55a.458.458,0,0,1-.458-.458v-6.647a4.36,4.36,0,0,0-.373-2.189,1.338,1.338,0,0,0-1.242-.5,4.116,4.116,0,0,0-.8.074c-.134.027-.262.055-.382.083v9.175a.458.458,0,0,1-.458.458h-3.55a.458.458,0,0,1-.458-.458V-40.322a.458.458,0,0,1,.385-.452l3.55-.572A.459.459,0,0,1,67.225-41.352Zm0,6.92a.458.458,0,0,1-.268-.086.458.458,0,0,1-.19-.372v-5.466l-2.633.424v17.066h2.633v-9.071a.458.458,0,0,1,.332-.441c.233-.067.5-.13.786-.187a5.032,5.032,0,0,1,.983-.092,2.191,2.191,0,0,1,2.022.932,5.241,5.241,0,0,1,.509,2.67v6.188h2.633v-6.617a9.663,9.663,0,0,0-.238-2.228,4.126,4.126,0,0,0-.77-1.631,3.506,3.506,0,0,0-1.436-1.041,6.286,6.286,0,0,0-2.363-.382,5.329,5.329,0,0,0-1,.1,6.948,6.948,0,0,0-.858.211A.458.458,0,0,1,67.225-34.432ZM3.618-39.375H7.335a.458.458,0,0,1,.458.458v5.855h5.325v-5.855a.458.458,0,0,1,.458-.458h3.716a.458.458,0,0,1,.458.458v16.509a.458.458,0,0,1-.458.458H13.576a.458.458,0,0,1-.458-.458v-6.546H7.793v6.546a.458.458,0,0,1-.458.458H3.618a.458.458,0,0,1-.458-.458V-38.917A.458.458,0,0,1,3.618-39.375Zm3.258.916h-2.8v15.593h2.8v-6.546a.458.458,0,0,1,.458-.458h6.242a.458.458,0,0,1,.458.458v6.546h2.8V-38.458h-2.8V-32.6a.458.458,0,0,1-.458.458H7.335a.458.458,0,0,1-.458-.458Zm50.129-.63a.458.458,0,0,1,.3.109.458.458,0,0,1,.161.349V-35.4H61.27a.458.458,0,0,1,.458.458v2.954a.458.458,0,0,1-.458.458H57.463v3.949a3.085,3.085,0,0,0,.33,1.554c.173.293.573.442,1.19.442a6.355,6.355,0,0,0,1.1-.1,5.649,5.649,0,0,0,1.024-.275.458.458,0,0,1,.388.029.458.458,0,0,1,.226.317l.5,2.763a.458.458,0,0,1-.278.506,10.6,10.6,0,0,1-1.494.474,8.816,8.816,0,0,1-2.038.2,6.828,6.828,0,0,1-2.581-.428,4.243,4.243,0,0,1-1.705-1.23,4.551,4.551,0,0,1-.89-1.891A10.558,10.558,0,0,1,53-27.529v-10.53a.458.458,0,0,1,.385-.452l3.55-.572A.458.458,0,0,1,57.005-39.089Zm3.806,4.609H57.005a.458.458,0,0,1-.458-.458v-3.155l-2.633.424v10.139a9.646,9.646,0,0,0,.215,2.114,3.646,3.646,0,0,0,.707,1.515,3.34,3.34,0,0,0,1.344.961,5.938,5.938,0,0,0,2.231.358,7.922,7.922,0,0,0,1.822-.178,10.349,10.349,0,0,0,1.019-.3l-.339-1.872c-.213.059-.438.11-.671.151a7.272,7.272,0,0,1-1.259.114A2.11,2.11,0,0,1,57-25.558a3.963,3.963,0,0,1-.457-2.019v-4.407a.458.458,0,0,1,.458-.458h3.806ZM25.8-35.73a6,6,0,0,1,4.549,1.775,7.187,7.187,0,0,1,1.674,5.116c0,.215-.008.454-.025.708s-.032.471-.048.664a.458.458,0,0,1-.457.42h-7.48a1.916,1.916,0,0,0,.718.907,3.7,3.7,0,0,0,2.165.559,9.846,9.846,0,0,0,1.832-.171,6.831,6.831,0,0,0,1.438-.41.458.458,0,0,1,.4.016.458.458,0,0,1,.234.328l.476,2.883a.458.458,0,0,1-.247.484,5.292,5.292,0,0,1-.836.315,10.478,10.478,0,0,1-1.109.262c-.4.073-.831.135-1.285.184a13.031,13.031,0,0,1-1.383.074,8.385,8.385,0,0,1-3.112-.533,6.211,6.211,0,0,1-2.235-1.48,5.916,5.916,0,0,1-1.317-2.232,8.657,8.657,0,0,1-.416-2.716,8.151,8.151,0,0,1,.546-3.092A6.74,6.74,0,0,1,21.328-33.9,6.08,6.08,0,0,1,23.4-35.269,6.488,6.488,0,0,1,25.8-35.73Zm5.269,7.766q.008-.109.015-.226c.015-.235.023-.454.023-.649a6.322,6.322,0,0,0-1.423-4.485,4.522,4.522,0,0,0-1.661-1.112,6.154,6.154,0,0,0-2.223-.377,5.576,5.576,0,0,0-2.059.4,5.169,5.169,0,0,0-1.762,1.161,5.832,5.832,0,0,0-1.246,1.934,7.247,7.247,0,0,0-.478,2.745,7.744,7.744,0,0,0,.37,2.429,5.007,5.007,0,0,0,1.113,1.89A5.3,5.3,0,0,0,23.645-23a7.483,7.483,0,0,0,2.772.468A12.114,12.114,0,0,0,27.7-22.6c.431-.046.841-.1,1.217-.174a9.568,9.568,0,0,0,1.011-.238q.213-.064.383-.127l-.327-1.98a9.481,9.481,0,0,1-1.09.268,10.765,10.765,0,0,1-2,.187,4.577,4.577,0,0,1-2.7-.728,2.81,2.81,0,0,1-1.214-2.063.458.458,0,0,1,.114-.355.458.458,0,0,1,.341-.152Zm7.262-7.766a8.705,8.705,0,0,1,2.768.382A4.539,4.539,0,0,1,42.961-34.2a4.235,4.235,0,0,1,1,1.813,8.484,8.484,0,0,1,.278,2.242v7.385a.458.458,0,0,1-.36.448c-.513.112-1.234.246-2.143.4a20.919,20.919,0,0,1-3.363.233,10.928,10.928,0,0,1-2.3-.225,5.259,5.259,0,0,1-1.865-.772,3.683,3.683,0,0,1-1.25-1.453,4.868,4.868,0,0,1-.427-2.13,4.122,4.122,0,0,1,.5-2.087,3.86,3.86,0,0,1,1.336-1.376,5.809,5.809,0,0,1,1.836-.713,9.992,9.992,0,0,1,2.073-.212,11.734,11.734,0,0,1,1.277.062q.186.021.35.045a1.422,1.422,0,0,0-.4-.9,2.3,2.3,0,0,0-1.582-.414,11.732,11.732,0,0,0-1.719.126,7.249,7.249,0,0,0-1.433.346.458.458,0,0,1-.391-.034.458.458,0,0,1-.221-.324L33.707-34.6a.458.458,0,0,1,.318-.51c.216-.066.487-.137.806-.211s.672-.14,1.047-.2.768-.106,1.18-.146S37.9-35.73,38.328-35.73Zm5,12.593V-30.15a7.572,7.572,0,0,0-.246-2,3.329,3.329,0,0,0-.784-1.427,3.638,3.638,0,0,0-1.495-.906,7.814,7.814,0,0,0-2.473-.333c-.4,0-.794.019-1.182.057s-.776.086-1.131.14-.681.116-.978.184q-.194.045-.361.088l.305,1.929a9.31,9.31,0,0,1,1.088-.224,12.652,12.652,0,0,1,1.854-.136,3.038,3.038,0,0,1,2.23.682,2.414,2.414,0,0,1,.682,1.777v.334a.458.458,0,0,1-.182.366.458.458,0,0,1-.4.075,5.049,5.049,0,0,0-.794-.14,10.826,10.826,0,0,0-1.176-.057,9.074,9.074,0,0,0-1.882.192,4.9,4.9,0,0,0-1.547.6A2.914,2.914,0,0,0,33.829-27.9a3.226,3.226,0,0,0-.379,1.629,3.973,3.973,0,0,0,.335,1.73,2.741,2.741,0,0,0,.942,1.1,4.351,4.351,0,0,0,1.542.633,10.016,10.016,0,0,0,2.107.2,20.02,20.02,0,0,0,3.212-.22C42.284-22.94,42.866-23.045,43.325-23.137ZM25.845-32.8a2.709,2.709,0,0,1,1.246.265,2.621,2.621,0,0,1,.835.665,2.667,2.667,0,0,1,.489.919,4.14,4.14,0,0,1,.174.991.458.458,0,0,1-.125.339.458.458,0,0,1-.332.143H23.439a.458.458,0,0,1-.348-.161.458.458,0,0,1-.1-.369,5.564,5.564,0,0,1,.247-.974,2.865,2.865,0,0,1,.525-.921,2.581,2.581,0,0,1,.867-.652A2.843,2.843,0,0,1,25.845-32.8Zm1.768,2.406q-.03-.147-.074-.289a1.732,1.732,0,0,0-.321-.605,1.711,1.711,0,0,0-.546-.431,1.817,1.817,0,0,0-.827-.164,1.943,1.943,0,0,0-.829.159,1.649,1.649,0,0,0-.562.42,1.953,1.953,0,0,0-.356.628q-.049.141-.09.283Zm11.335,2.12a7.652,7.652,0,0,1,.837.05,6.9,6.9,0,0,1,.692.1.458.458,0,0,1,.359.447v2.692a.458.458,0,0,1-.383.452,7.327,7.327,0,0,1-.815.077c-.324.016-.668.024-1.023.024a3.5,3.5,0,0,1-1.765-.382,1.649,1.649,0,0,1-.79-1.553,1.714,1.714,0,0,1,.268-.969,1.787,1.787,0,0,1,.7-.608,2.925,2.925,0,0,1,.918-.271A7.528,7.528,0,0,1,38.948-28.273Zm.971.989-.236-.028a6.742,6.742,0,0,0-.736-.045,6.61,6.61,0,0,0-.88.055,2.016,2.016,0,0,0-.631.182.871.871,0,0,0-.348.3.824.824,0,0,0-.114.461c0,.51.188.677.33.758a2.676,2.676,0,0,0,1.308.261c.34,0,.669-.008.978-.023q.178-.009.327-.021Z" transform="translate(-218.648 -217.055)" fill="#fff"/>
  </g>
</svg>
